<?xml version="1.0" encoding="utf-8"?>
<!-- Generator: Adobe Illustrator 23.1.0, SVG Export Plug-In . SVG Version: 6.00 Build 0)  -->
<svg version="1.1" id="back" xmlns="http://www.w3.org/2000/svg" xmlns:xlink="http://www.w3.org/1999/xlink" x="0px" y="0px"
	 viewBox="0 0 28 28" style="enable-background:new 0 0 28 28;" xml:space="preserve">
<style type="text/css">
	.st0{fill:#013366;}
	.st1{fill-rule:evenodd;clip-rule:evenodd;fill:#FFFFFF;}
</style>
<circle id="round" class="st0" cx="14" cy="14" r="14"/>
<path id="arrow" class="st1" d="M10.2,13.5l4.5-4.3c0.3-0.3,0.8-0.3,1,0c0.3,0.3,0.3,0.7,0,1c0,0,0,0,0,0l-4,3.8l4,3.8
	c0.3,0.3,0.3,0.7,0,1c0,0,0,0,0,0c-0.3,0.3-0.8,0.3-1,0l-4.5-4.3C9.9,14.3,9.9,13.8,10.2,13.5C10.2,13.5,10.2,13.5,10.2,13.5z"/>
</svg>
